<?xml version="1.0" encoding="utf-8"?>
<!-- Generator: Adobe Illustrator 21.0.0, SVG Export Plug-In . SVG Version: 6.00 Build 0)  -->
<svg version="1.1" id="Capa_1" xmlns="http://www.w3.org/2000/svg" xmlns:xlink="http://www.w3.org/1999/xlink" x="0px" y="0px"
	 viewBox="0 0 479.5 479.5" style="enable-background:new 0 0 479.5 479.5;" xml:space="preserve">
<style type="text/css">
	.st0{fill:#008BB9;}
	.st1{fill:none;stroke:#008BB9;stroke-width:16;stroke-miterlimit:10;}
</style>
<g>
	<g id="iconos_42_">
		<path class="st0" d="M384,362.3v-19.1c0-13-7.6-20.6-20.6-20.6H233.9c-17.5,0-26.5,8.3-26.5,20.6v24.8c0,12.9,8.6,19.3,26.5,19.3
			h129.5C376.4,387.4,384,378.7,384,362.3z M360.4,363.8H230.9v-17.7h129.5V363.8z"/>
		<path class="st0" d="M283.9,187.2v5.9v50.5l0,0v0l7.5,20.2h-12.6L155.6,92.1l-27.1,16.4l8.2,14.4v76H128l5.8,41.2h2.6h0.3v12.5
			c-5.3,2.4-11.2,7.6-11.2,16.9c0,6.2,2.4,10.8,6,13.8l-31.9,27.5h9l28.3-24.4c2.6,1,5.3,1.6,8,1.6c2.7,0,5.4-0.7,7.9-2l30.7,24.9
			h9.2l0.1-0.1l-35.3-28.6c2.4-2.9,4-6.7,4-11.7c0-3.3-2.6-5.9-5.9-5.9c-3.3,0-5.9,2.6-5.9,5.9c0,2.1-0.6,3.4-1.3,4.3l-1.6-1.3
			c-1.1-0.9-2.7-0.9-3.8,0.1l-2.2,1.9c-1.9-0.9-3.4-2.6-3.4-5.9c0-5.3,5.3-6.6,6.3-6.8c2.8-0.5,4.9-2.9,4.9-5.8v-16.7h4.1h2.4
			l8.2-41.2h-5.9h-2.9v-42.7l70.7,136v0.9v1.8v4.1h23.6v11.8H331h5.9v-11.8h29.4h5.9V187.2H283.9z M233,217.8l0.1,0.1l-24,15.6
			l12.4-31.7L233,217.8z M148.5,199h-2.9h-2.9V134l5.9,11.1V199z M153.6,139l-10.2-19.3l15.8-10.4L153.6,139z M167.4,121.3
			l11.3,19.6l-18.2,11.7L167.4,121.3z M169.2,163.9l17.2-11.2l-6.7,30.6L169.2,163.9z M193.6,162.7l12.7,18.5l-19,12.2L193.6,162.7z
			 M191.7,207.4l21.3-14.6l-12.1,32.5L191.7,207.4z M223.2,263.4l-10.3-18.1l25.5-18.2L223.2,263.4z M231.2,276.2l17.4-37.5
			l14.2,19.3L231.2,276.2z M348.7,246.1h-41.2v-35.3h41.2V246.1z"/>
		<polygon class="st0" points="101.4,346.2 95.5,346.2 95.5,357.9 189.7,357.9 189.7,346.2 177.9,346.2 177.9,334.4 177.9,328.5 
			189.7,328.5 189.7,316.7 95.5,316.7 95.5,328.5 107.3,328.5 107.3,346.2 		"/>
	</g>
</g>
<circle class="st1" cx="239.8" cy="239.8" r="227.9"/>
</svg>
