<svg id="Layer_1" enable-background="new 0 0 511 511" height="512" viewBox="0 0 511 511" width="512" xmlns="http://www.w3.org/2000/svg"><path d="m327.623 150c-75.3.3-135 61.199-135 135 0 41.1 18.9 79.799 50.4 105 5.7 4.799 11.7 9 18.3 12.599 3.9 2.1 6.301 6.899 6.301 12.299v5.102l15 30h45 45l15-30v-5.101c0-5.4 2.401-10.199 6.599-12.299 6.301-3.6 12.601-7.8 18.001-12.599 32.1-25.501 50.7-64.2 50.4-105.901-.601-75.6-63-134.1-135.001-134.1z" fill="#f6d401"/><path d="m387.623 420v-5.101c0-5.4 2.401-10.199 6.599-12.299 6.301-3.6 12.601-7.8 18.001-12.599 32.1-25.501 50.7-64.2 50.4-105.901-.6-75.6-62.999-134.1-135-134.1v300h45z" fill="#fd9d34"/><path d="m357.623 270v36.973l-30 19.995-30-19.995v-36.973h-30v53.027l45 30.004v81.969h15 15v-81.969l45-30.004v-53.027z" fill="#fd9d34"/><path d="m342.623 353.031 45-30.004v-53.027h-30v36.973l-30 19.995v108.032h15z" fill="#ec5b20"/><path d="m327.623 420h-60v91h60 60v-91z" fill="#e1ebf0"/><path d="m327.623 420h60v91h-60z" fill="#cde1e6"/><path d="m97.623 165.425h30v149.575h-30z" fill="#f6d401"/><path d="m224.748 110.49-90.932 52.5 60.02 103.923 90.912-52.5 93.475-54.413-62.542-102.01z" fill="#474f54"/><path d="m315.681 57.99-90.933 52.5 60 103.923 93.475-54.413z" fill="#32393f"/><path d="m179.748 32.548-131.375 162.452 206.375-32.548 131.375-162.452z" fill="#575f64"/><path d="m179.748 32.548 75 129.904 131.375-162.452z" fill="#474f54"/></svg>