<?xml version="1.0" encoding="utf-8"?>
<!-- Generator: Adobe Illustrator 21.0.0, SVG Export Plug-In . SVG Version: 6.00 Build 0)  -->
<svg version="1.1" id="Layer_1" xmlns="http://www.w3.org/2000/svg" xmlns:xlink="http://www.w3.org/1999/xlink" x="0px" y="0px"
	 viewBox="0 0 1920 525" style="enable-background:new 0 0 1920 525;" xml:space="preserve">
<style type="text/css">
	.st0{fill:url(#SVGID_1_);}
	.st1{enable-background:new    ;}
	.st2{fill:#FFFFFF;}
	.st3{fill:url(#SVGID_2_);}
	.st4{fill:url(#SVGID_3_);}
	.st5{fill:#FCFAFA;}
	.st6{font-family:'OpenSans-Bold';}
	.st7{font-size:12.5222px;}
	.st8{fill:url(#SVGID_4_);}
	.st9{fill:url(#SVGID_5_);}
	.st10{fill:url(#SVGID_6_);}
	.st11{fill:url(#SVGID_7_);}
	.st12{fill:url(#SVGID_8_);}
	.st13{fill:url(#SVGID_9_);}
	.st14{fill:url(#SVGID_10_);}
	.st15{fill:url(#SVGID_11_);}
	.st16{fill:url(#SVGID_12_);}
	.st17{fill:url(#SVGID_13_);}
	.st18{fill:url(#SVGID_14_);}
	.st19{fill:#EFEFEF;}
	.st20{font-size:11.9823px;}
	.st21{fill:url(#SVGID_15_);}
	.st22{opacity:0.41;fill:url(#SVGID_16_);enable-background:new    ;}
	.st23{fill:url(#SVGID_17_);}
	.st24{fill:url(#SVGID_18_);}
	.st25{opacity:0.41;fill:url(#SVGID_19_);enable-background:new    ;}
	.st26{opacity:0.41;fill:url(#SVGID_20_);enable-background:new    ;}
	.st27{fill:url(#SVGID_21_);}
	.st28{opacity:0.41;fill:url(#SVGID_22_);enable-background:new    ;}
	.st29{opacity:0.41;fill:url(#SVGID_23_);enable-background:new    ;}
	.st30{fill:url(#SVGID_24_);}
	.st31{fill:url(#SVGID_25_);}
	.st32{fill:url(#SVGID_26_);}
	.st33{opacity:0.41;fill:url(#SVGID_27_);enable-background:new    ;}
	.st34{fill:url(#SVGID_28_);}
	.st35{font-size:16.54px;}
	.st36{fill:url(#SVGID_29_);}
	.st37{fill:#006EB5;}
	.st38{fill:url(#SVGID_30_);}
	.st39{fill:url(#SVGID_31_);}
	.st40{fill:url(#SVGID_32_);}
	.st41{fill:url(#SVGID_33_);}
	.st42{fill:url(#SVGID_34_);}
	.st43{fill:url(#SVGID_35_);}
	.st44{fill:url(#SVGID_36_);}
	.st45{fill:none;stroke:#FFFFFF;stroke-width:0.75;stroke-miterlimit:10;}
	.st46{font-family:'OpenSans';}
	.st47{font-size:12.0625px;}
	.st48{font-size:5.1758px;}
	.st49{font-size:7.6389px;}
	.st50{font-size:8.3507px;}
	.st51{font-size:9.1962px;}
</style>
<g id="BACKGROUND">
</g>
<g id="DESIGNED_BY_FREEPIK">
	
		<linearGradient id="SVGID_1_" gradientUnits="userSpaceOnUse" x1="0" y1="262.56" x2="1920" y2="262.56" gradientTransform="matrix(1 0 0 -1 0 525.0599)">
		<stop  offset="0" style="stop-color:#071A35"/>
		<stop  offset="1" style="stop-color:#197A98"/>
	</linearGradient>
	<rect y="0" class="st0" width="1920" height="525"/>
	<g>
		<g class="st1">
			<path class="st2" d="M132.5,219.6h17v11.2h-17v23h21.3v11.2h-33.7v-78.6h33.7v11.2h-21.3V219.6z"/>
			<path class="st2" d="M178.1,185.6c12,0,18.2,7.2,18.2,19.8v2.5h-11.7v-3.3c0-5.6-2.2-7.7-6.2-7.7s-6.2,2.1-6.2,7.7
				c0,5.7,2.5,10,10.6,17.1c10.3,9.1,13.6,15.6,13.6,24.6c0,12.6-6.3,19.8-18.4,19.8s-18.4-7.2-18.4-19.8v-4.8h11.7v5.6
				c0,5.6,2.5,7.6,6.4,7.6s6.4-2,6.4-7.6c0-5.7-2.5-10-10.6-17.1c-10.3-9.1-13.6-15.6-13.6-24.6
				C159.9,192.8,166.1,185.6,178.1,185.6z"/>
			<path class="st2" d="M199.9,186.5H238v11.2h-12.9v67.4h-12.4v-67.4h-12.9V186.5z"/>
			<path class="st2" d="M279.1,265.1h-12.5l-2.1-14.3h-15.2l-2.1,14.3h-11.3l12.6-78.6h18.1L279.1,265.1z M251,240.2h11.9l-5.8-39.8
				h-0.2L251,240.2z"/>
			<path class="st2" d="M284.9,186.5h19.5c12.4,0,18.4,6.9,18.4,19.4v39.8c0,12.6-6.1,19.4-18.4,19.4h-19.5V186.5z M297.2,197.7
				v56.2h7c3.9,0,6.3-2,6.3-7.6v-40.9c0-5.6-2.4-7.6-6.3-7.6H297.2z"/>
			<path class="st2" d="M350.1,169.9l-11.5,12.5h-8.3l7.6-12.5H350.1z M330.7,186.5H343v78.6h-12.4V186.5z"/>
			<path class="st2" d="M368.7,185.6c12,0,18.2,7.2,18.2,19.8v2.5h-11.7v-3.3c0-5.6-2.2-7.7-6.2-7.7s-6.2,2.1-6.2,7.7
				c0,5.7,2.5,10,10.6,17.1c10.3,9.1,13.6,15.6,13.6,24.6c0,12.6-6.3,19.8-18.4,19.8s-18.4-7.2-18.4-19.8v-4.8h11.7v5.6
				c0,5.6,2.5,7.6,6.4,7.6s6.4-2,6.4-7.6c0-5.7-2.5-10-10.6-17.1c-10.3-9.1-13.6-15.6-13.6-24.6
				C350.5,192.8,356.6,185.6,368.7,185.6z"/>
			<path class="st2" d="M390.4,186.5h38.2v11.2h-12.9v67.4h-12.4v-67.4h-12.9V186.5z"/>
			<path class="st2" d="M434,186.5h12.4v78.6H434V186.5z"/>
			<path class="st2" d="M491.2,235.8v10.4c0,12.6-6.3,19.8-18.4,19.8s-18.4-7.2-18.4-19.8v-40.9c0-12.6,6.3-19.8,18.4-19.8
				s18.4,7.2,18.4,19.8v7.6h-11.7v-8.4c0-5.6-2.5-7.7-6.4-7.7s-6.4,2.1-6.4,7.7V247c0,5.6,2.5,7.6,6.4,7.6s6.4-2,6.4-7.6v-11.2
				H491.2z"/>
			<path class="st2" d="M538.7,265.1h-12.5l-2.1-14.3h-15.2l-2.1,14.3h-11.3l12.6-78.6h18.1L538.7,265.1z M510.5,240.2h11.9
				l-5.8-39.8h-0.2L510.5,240.2z"/>
			<path class="st2" d="M561,185.6c12,0,18.2,7.2,18.2,19.8v2.5h-11.7v-3.3c0-5.6-2.2-7.7-6.2-7.7s-6.2,2.1-6.2,7.7
				c0,5.7,2.5,10,10.6,17.1c10.3,9.1,13.6,15.6,13.6,24.6c0,12.6-6.3,19.8-18.4,19.8s-18.4-7.2-18.4-19.8v-4.8h11.7v5.6
				c0,5.6,2.5,7.6,6.4,7.6s6.4-2,6.4-7.6c0-5.7-2.5-10-10.6-17.1c-10.3-9.1-13.6-15.6-13.6-24.6C542.8,192.8,549,185.6,561,185.6z"
				/>
		</g>
		<g class="st1">
			<path class="st2" d="M235.7,292.7h6.2c3.9,0,5.9,2.2,5.9,6.2v12.7c0,4-1.9,6.2-5.9,6.2h-6.2V292.7z M239.7,296.2v17.9h2.2
				c1.3,0,2-0.6,2-2.4v-13c0-1.8-0.8-2.4-2-2.4H239.7z"/>
			<path class="st2" d="M254.2,303.2h5.4v3.6h-5.4v7.3h6.8v3.6h-10.7v-25H261v3.6h-6.8V303.2z"/>
		</g>
		<g class="st1">
			<path class="st2" d="M317.4,332.8v9.5c0,11.4-5.7,18-16.7,18c-11,0-16.7-6.5-16.7-18v-37.2c0-11.4,5.7-18,16.7-18
				c11,0,16.7,6.5,16.7,18v6.9h-10.6v-7.7c0-5.1-2.2-7-5.8-7c-3.6,0-5.8,1.9-5.8,7V343c0,5.1,2.2,6.9,5.8,6.9c3.6,0,5.8-1.8,5.8-6.9
				v-10.2H317.4z"/>
			<path class="st2" d="M323.3,305.1c0-11.4,6-18,17.1-18c11,0,17.1,6.5,17.1,18v37.2c0,11.4-6,18-17.1,18c-11,0-17.1-6.5-17.1-18
				V305.1z M334.5,343c0,5.1,2.2,7,5.8,7c3.6,0,5.8-1.9,5.8-7v-38.6c0-5.1-2.2-7-5.8-7c-3.6,0-5.8,1.9-5.8,7V343z"/>
			<path class="st2" d="M374.8,307.6h-0.2v51.8h-10.1v-71.5h14.1l11.3,42.8h0.2v-42.8h10v71.5h-11.5L374.8,307.6z"/>
			<path class="st2" d="M423.3,287.1c10.9,0,16.5,6.5,16.5,18v2.2h-10.6v-3c0-5.1-2-7-5.6-7s-5.6,1.9-5.6,7c0,5.2,2.2,9.1,9.6,15.5
				c9.4,8.3,12.4,14.2,12.4,22.4c0,11.4-5.7,18-16.7,18c-11,0-16.7-6.5-16.7-18v-4.4h10.6v5.1c0,5.1,2.2,6.9,5.8,6.9
				s5.8-1.8,5.8-6.9c0-5.2-2.2-9.1-9.6-15.5c-9.4-8.3-12.4-14.2-12.4-22.4C406.8,293.7,412.4,287.1,423.3,287.1z"/>
			<path class="st2" d="M457.1,287.9v55.1c0,5.1,2.2,6.9,5.8,6.9c3.6,0,5.8-1.8,5.8-6.9v-55.1h10.6v54.4c0,11.4-5.7,18-16.7,18
				c-11,0-16.7-6.5-16.7-18v-54.4H457.1z"/>
			<path class="st2" d="M510.7,338.7h0.2l7.6-50.8h15.6v71.5h-10.6v-51.3h-0.2l-7.6,51.3h-10.6l-8.2-50.5h-0.2v50.5h-9.8v-71.5h15.6
				L510.7,338.7z"/>
			<path class="st2" d="M541.4,305.1c0-11.4,6-18,17.1-18c11,0,17.1,6.5,17.1,18v37.2c0,11.4-6,18-17.1,18c-11,0-17.1-6.5-17.1-18
				V305.1z M552.6,343c0,5.1,2.2,7,5.8,7c3.6,0,5.8-1.9,5.8-7v-38.6c0-5.1-2.2-7-5.8-7c-3.6,0-5.8,1.9-5.8,7V343z"/>
		</g>
	</g>
</g>
<g id="OBJECTS">
	<g>
		<g>
			<g>
				<g>
					
						<linearGradient id="SVGID_2_" gradientUnits="userSpaceOnUse" x1="1576.75" y1="88.0511" x2="1576.75" y2="247.3316" gradientTransform="matrix(1 0 0 -1 0 525.0599)">
						<stop  offset="7.023620e-02" style="stop-color:#0B5CB5"/>
						<stop  offset="1" style="stop-color:#0A467C"/>
					</linearGradient>
					<rect x="1558.8" y="273.1" class="st3" width="35.9" height="173.5"/>
					
						<linearGradient id="SVGID_3_" gradientUnits="userSpaceOnUse" x1="1576.75" y1="61.5671" x2="1576.75" y2="171.568" gradientTransform="matrix(1 0 0 -1 0 525.0599)">
						<stop  offset="0" style="stop-color:#069EFC"/>
						<stop  offset="1" style="stop-color:#14F4C9"/>
					</linearGradient>
					<rect x="1558.8" y="421.2" class="st4" width="35.9" height="25.4"/>
					<text transform="matrix(1 0 0 1 1560.4639 464.6507)" class="st5 st6 st7">2015</text>
				</g>
				<g>
					
						<linearGradient id="SVGID_4_" gradientUnits="userSpaceOnUse" x1="1633.1499" y1="88.0511" x2="1633.1499" y2="247.3316" gradientTransform="matrix(1 0 0 -1 0 525.0599)">
						<stop  offset="7.023620e-02" style="stop-color:#0B5CB5"/>
						<stop  offset="1" style="stop-color:#0A467C"/>
					</linearGradient>
					<rect x="1615.2" y="273.1" class="st8" width="35.9" height="173.5"/>
					
						<linearGradient id="SVGID_5_" gradientUnits="userSpaceOnUse" x1="1633.1499" y1="61.5672" x2="1633.1499" y2="171.5675" gradientTransform="matrix(1 0 0 -1 0 525.0599)">
						<stop  offset="0" style="stop-color:#069EFC"/>
						<stop  offset="1" style="stop-color:#14F4C9"/>
					</linearGradient>
					<rect x="1615.2" y="401.7" class="st9" width="35.9" height="44.8"/>
					<text transform="matrix(1 0 0 1 1617.9434 464.6507)" class="st5 st6 st7">2016</text>
				</g>
				<g>
					
						<linearGradient id="SVGID_6_" gradientUnits="userSpaceOnUse" x1="1689.6499" y1="88.0511" x2="1689.6499" y2="247.3316" gradientTransform="matrix(1 0 0 -1 0 525.0599)">
						<stop  offset="7.023620e-02" style="stop-color:#0B5CB5"/>
						<stop  offset="1" style="stop-color:#0A467C"/>
					</linearGradient>
					<rect x="1671.7" y="273.1" class="st10" width="35.9" height="173.5"/>
					
						<linearGradient id="SVGID_7_" gradientUnits="userSpaceOnUse" x1="1689.6499" y1="61.5671" x2="1689.6499" y2="171.5678" gradientTransform="matrix(1 0 0 -1 0 525.0599)">
						<stop  offset="0" style="stop-color:#069EFC"/>
						<stop  offset="1" style="stop-color:#14F4C9"/>
					</linearGradient>
					<rect x="1671.7" y="384" class="st11" width="35.9" height="62.6"/>
					<text transform="matrix(1 0 0 1 1674.0352 464.6507)" class="st5 st6 st7">2017</text>
				</g>
				<g>
					
						<linearGradient id="SVGID_8_" gradientUnits="userSpaceOnUse" x1="1746.1499" y1="88.0511" x2="1746.1499" y2="247.3316" gradientTransform="matrix(1 0 0 -1 0 525.0599)">
						<stop  offset="7.023620e-02" style="stop-color:#0B5CB5"/>
						<stop  offset="1" style="stop-color:#0A467C"/>
					</linearGradient>
					<rect x="1728.2" y="273.1" class="st12" width="35.9" height="173.5"/>
					
						<linearGradient id="SVGID_9_" gradientUnits="userSpaceOnUse" x1="1746.1499" y1="61.5672" x2="1746.1499" y2="171.5679" gradientTransform="matrix(1 0 0 -1 0 525.0599)">
						<stop  offset="0" style="stop-color:#069EFC"/>
						<stop  offset="1" style="stop-color:#14F4C9"/>
					</linearGradient>
					<rect x="1728.2" y="360.3" class="st13" width="35.9" height="86.3"/>
					<text transform="matrix(1 0 0 1 1730.6455 464.6507)" class="st5 st6 st7">2018</text>
				</g>
				<g>
					
						<linearGradient id="SVGID_10_" gradientUnits="userSpaceOnUse" x1="1802.5499" y1="88.0511" x2="1802.5499" y2="247.3316" gradientTransform="matrix(1 0 0 -1 0 525.0599)">
						<stop  offset="7.023620e-02" style="stop-color:#0B5CB5"/>
						<stop  offset="1" style="stop-color:#0A467C"/>
					</linearGradient>
					<rect x="1784.6" y="273.1" class="st14" width="35.9" height="173.5"/>
					
						<linearGradient id="SVGID_11_" gradientUnits="userSpaceOnUse" x1="1802.5499" y1="61.5671" x2="1802.5499" y2="171.5677" gradientTransform="matrix(1 0 0 -1 0 525.0599)">
						<stop  offset="0" style="stop-color:#069EFC"/>
						<stop  offset="1" style="stop-color:#14F4C9"/>
					</linearGradient>
					<rect x="1784.6" y="331.5" class="st15" width="35.9" height="115.1"/>
					<text transform="matrix(1 0 0 1 1788.4678 464.6507)" class="st5 st6 st7">2019</text>
				</g>
				<g>
					
						<linearGradient id="SVGID_12_" gradientUnits="userSpaceOnUse" x1="1860.0499" y1="88.0511" x2="1860.0499" y2="247.3316" gradientTransform="matrix(1 0 0 -1 0 525.0599)">
						<stop  offset="7.023620e-02" style="stop-color:#0B5CB5"/>
						<stop  offset="1" style="stop-color:#0A467C"/>
					</linearGradient>
					<rect x="1842.1" y="273.1" class="st16" width="35.9" height="173.5"/>
					
						<linearGradient id="SVGID_13_" gradientUnits="userSpaceOnUse" x1="1860.0499" y1="61.5672" x2="1860.0499" y2="171.5679" gradientTransform="matrix(1 0 0 -1 0 525.0599)">
						<stop  offset="0" style="stop-color:#069EFC"/>
						<stop  offset="1" style="stop-color:#14F4C9"/>
					</linearGradient>
					<rect x="1842.1" y="308.7" class="st17" width="35.9" height="137.9"/>
					<text transform="matrix(1 0 0 1 1845.4238 464.6507)" class="st5 st6 st7">2020</text>
				</g>
			</g>
			<g>
				
					<linearGradient id="SVGID_14_" gradientUnits="userSpaceOnUse" x1="1561.3206" y1="130.0714" x2="1906.3815" y2="278.4004" gradientTransform="matrix(1 0 0 -1 0 525.0599)">
					<stop  offset="0" style="stop-color:#069EFC"/>
					<stop  offset="1" style="stop-color:#14F4C9"/>
				</linearGradient>
				<polygon class="st18" points="1842.7,293.6 1864.8,264.9 1828.9,260.4 1834,272.7 1554.9,388.7 1558.5,397.2 1837.6,281.2 				
					"/>
			</g>
		</g>
		<g>
			<text transform="matrix(1 0 0 1 1847.4268 383.8782)" class="st19 st6 st20">75%</text>
			<text transform="matrix(1 0 0 1 1791.165 397.3206)" class="st19 st6 st20">65%</text>
			<text transform="matrix(1 0 0 1 1733.9395 411.7591)" class="st19 st6 st20">55%</text>
			<text transform="matrix(1 0 0 1 1677.5674 423.7112)" class="st19 st6 st20">35%</text>
			<text transform="matrix(1 0 0 1 1623.0537 431.1762)" class="st19 st6 st20">25%</text>
			<text transform="matrix(1 0 0 1 1565.4424 439.6448)" class="st19 st6 st20">15%</text>
		</g>
	</g>
	<g>
		<g>
			
				<linearGradient id="SVGID_15_" gradientUnits="userSpaceOnUse" x1="759.2" y1="39.6843" x2="759.2" y2="391.3275" gradientTransform="matrix(1 0 0 -1 0 525.0599)">
				<stop  offset="0" style="stop-color:#FDFEFF;stop-opacity:0"/>
				<stop  offset="1" style="stop-color:#FDFEFF"/>
			</linearGradient>
			<path class="st21" d="M790.3,401.7V255.5c-31.1,0-31.1-47.9-62.2-47.9v194.1H790.3z"/>
			
				<linearGradient id="SVGID_16_" gradientUnits="userSpaceOnUse" x1="945.75" y1="89.1777" x2="945.75" y2="290.3696" gradientTransform="matrix(1 0 0 -1 0 525.0599)">
				<stop  offset="0" style="stop-color:#FDFEFF;stop-opacity:0"/>
				<stop  offset="1" style="stop-color:#FDFEFF"/>
			</linearGradient>
			<path class="st22" d="M976.8,401.7V180.4l0,0c-31.1,0-31.1,193.1-62.1,193.2v28.1L976.8,401.7L976.8,401.7z"/>
			
				<linearGradient id="SVGID_17_" gradientUnits="userSpaceOnUse" x1="1132.1499" y1="39.6845" x2="1132.1499" y2="391.3284" gradientTransform="matrix(1 0 0 -1 0 525.0599)">
				<stop  offset="0" style="stop-color:#FDFEFF;stop-opacity:0"/>
				<stop  offset="1" style="stop-color:#FDFEFF"/>
			</linearGradient>
			<path class="st23" d="M1163.2,401.7V138.1l0,0c-31.1,0-31.1,41.5-62.1,41.5v222.1H1163.2z"/>
			
				<linearGradient id="SVGID_18_" gradientUnits="userSpaceOnUse" x1="1007.85" y1="39.6844" x2="1007.85" y2="391.3279" gradientTransform="matrix(1 0 0 -1 0 525.0599)">
				<stop  offset="0" style="stop-color:#FDFEFF;stop-opacity:0"/>
				<stop  offset="1" style="stop-color:#FDFEFF"/>
			</linearGradient>
			<path class="st24" d="M1038.9,401.7V228.3l0,0c-31.1,0-31.1-47.9-62.1-47.9v221.3H1038.9z"/>
			
				<linearGradient id="SVGID_19_" gradientUnits="userSpaceOnUse" x1="1070.0499" y1="89.1776" x2="1070.0499" y2="290.3697" gradientTransform="matrix(1 0 0 -1 0 525.0599)">
				<stop  offset="0" style="stop-color:#FDFEFF;stop-opacity:0"/>
				<stop  offset="1" style="stop-color:#FDFEFF"/>
			</linearGradient>
			<path class="st25" d="M1101.1,401.7V179.6l0,0c-31.1,0-31.1,48.7-62.1,48.7v173.4H1101.1z"/>
			
				<linearGradient id="SVGID_20_" gradientUnits="userSpaceOnUse" x1="821.45" y1="89.1778" x2="821.45" y2="290.3698" gradientTransform="matrix(1 0 0 -1 0 525.0599)">
				<stop  offset="0" style="stop-color:#FDFEFF;stop-opacity:0"/>
				<stop  offset="1" style="stop-color:#FDFEFF"/>
			</linearGradient>
			<path class="st26" d="M852.5,401.7V170.1l0,0c-31.1,0-31.1,85.4-62.1,85.4l0,0v146.2H852.5z"/>
			
				<linearGradient id="SVGID_21_" gradientUnits="userSpaceOnUse" x1="886.4" y1="38.2419" x2="886.4" y2="395.9463" gradientTransform="matrix(1 0 0 -1 0 525.0599)">
				<stop  offset="0" style="stop-color:#FDFEFF;stop-opacity:0"/>
				<stop  offset="1" style="stop-color:#FDFEFF"/>
			</linearGradient>
			<path class="st27" d="M920.3,401.7v-28.6l0,0c-33.9,0-33.9-207-67.8-207.1v235.6h67.8V401.7z"/>
			
				<linearGradient id="SVGID_22_" gradientUnits="userSpaceOnUse" x1="1442.95" y1="89.1777" x2="1442.95" y2="290.3697" gradientTransform="matrix(1 0 0 -1 0 525.0599)">
				<stop  offset="0" style="stop-color:#FDFEFF;stop-opacity:0"/>
				<stop  offset="1" style="stop-color:#FDFEFF"/>
			</linearGradient>
			<path class="st28" d="M1474,401.7V227.5l0,0c-31.1,0-31.1,27.9-62.1,27.9v146.2h62.1V401.7z"/>
			
				<linearGradient id="SVGID_23_" gradientUnits="userSpaceOnUse" x1="1194.35" y1="89.1778" x2="1194.35" y2="290.3696" gradientTransform="matrix(1 0 0 -1 0 525.0599)">
				<stop  offset="0" style="stop-color:#FDFEFF;stop-opacity:0"/>
				<stop  offset="1" style="stop-color:#FDFEFF"/>
			</linearGradient>
			<path class="st29" d="M1225.4,401.7V91.8l0,0c-31.1,0-31.1,46.3-62.1,46.3v263.6H1225.4z"/>
			
				<linearGradient id="SVGID_24_" gradientUnits="userSpaceOnUse" x1="1380.75" y1="39.6843" x2="1380.75" y2="391.3264" gradientTransform="matrix(1 0 0 -1 0 525.0599)">
				<stop  offset="0" style="stop-color:#FDFEFF;stop-opacity:0"/>
				<stop  offset="1" style="stop-color:#FDFEFF"/>
			</linearGradient>
			<path class="st30" d="M1411.8,401.7V255.5l0,0c-31.1,0-31.1-83.8-62.1-83.8v230H1411.8z"/>
			
				<linearGradient id="SVGID_25_" gradientUnits="userSpaceOnUse" x1="1505.0499" y1="39.6843" x2="1505.0499" y2="391.3278" gradientTransform="matrix(1 0 0 -1 0 525.0599)">
				<stop  offset="0" style="stop-color:#FDFEFF;stop-opacity:0"/>
				<stop  offset="1" style="stop-color:#FDFEFF"/>
			</linearGradient>
			<path class="st31" d="M1536.1,401.7V255.5l0,0c-31.1,0-31.1-27.9-62.1-27.9v174.2L1536.1,401.7L1536.1,401.7z"/>
			
				<linearGradient id="SVGID_26_" gradientUnits="userSpaceOnUse" x1="1256.45" y1="39.6844" x2="1256.45" y2="391.329" gradientTransform="matrix(1 0 0 -1 0 525.0599)">
				<stop  offset="0" style="stop-color:#FDFEFF;stop-opacity:0"/>
				<stop  offset="1" style="stop-color:#FDFEFF"/>
			</linearGradient>
			<path class="st32" d="M1287.5,401.7V277.8l0,0c-31.1,0-31.1-185.9-62.1-186v309.9L1287.5,401.7L1287.5,401.7z"/>
			
				<linearGradient id="SVGID_27_" gradientUnits="userSpaceOnUse" x1="1318.6499" y1="89.1777" x2="1318.6499" y2="290.3695" gradientTransform="matrix(1 0 0 -1 0 525.0599)">
				<stop  offset="0" style="stop-color:#FDFEFF;stop-opacity:0"/>
				<stop  offset="1" style="stop-color:#FDFEFF"/>
			</linearGradient>
			<path class="st33" d="M1349.7,401.7v-230l0,0c-31.1,0-31.1,106.1-62.1,106.2v123.9h62.1V401.7z"/>
			
				<linearGradient id="SVGID_28_" gradientUnits="userSpaceOnUse" x1="728.1001" y1="292.31" x2="1598.2278" y2="292.31" gradientTransform="matrix(1 0 0 -1 0 525.0599)">
				<stop  offset="0" style="stop-color:#069EFC"/>
				<stop  offset="1" style="stop-color:#14F4C9"/>
			</linearGradient>
			<path class="st34" d="M1536.1,255.4c0-1.3-1-2.3-2.3-2.4c-13.1-0.7-19.9-6.8-27.1-13.3c-8-7.2-16.2-14.6-32.7-14.6
				s-24.7,7.4-32.7,14.6c-7.6,6.9-14.9,13.4-29.5,13.4c-13.9,0-21.5-20.5-28.8-40.3c-7.9-21.4-16.1-43.5-33.3-43.5
				c-17.3,0-25.1,26.6-33.4,54.8c-7.4,25.3-15,51.4-28.8,51.4c-13.5,0-21.9-50.4-28.7-91c-8.5-51-15.9-95-33.4-95
				c-16.8,0-25.1,12.3-33.1,24.2c-7.6,11.4-14.8,22.1-29.1,22.1c-16.7,0-25,11-33,21.7c-7.6,10.2-14.8,19.8-29.2,19.8
				c-16.8,0-25.1,12.9-33.1,25.4c-7.6,12-14.8,23.2-29.1,23.2s-21.4-11.1-29.1-22.9c-8-12.3-16.2-25-33.1-25
				c-17.6,0-24.9,45.7-33.4,98.6c-6.8,42.1-15.2,94.6-28.7,94.6s-21.9-55.3-28.7-99.8c-8.5-55.7-15.8-103.8-33.4-103.8
				c-17.2,0-25.4,22.5-33.3,44.3c-7.4,20.2-15,41.1-28.8,41.1c-14.2,0-21.4-11.1-29.1-22.9c-8-12.3-16.2-25-33.1-25v4.8
				c14.2,0,21.4,11.1,29.1,22.9c8,12.3,16.2,25,33.1,25c17.2,0,25.4-22.5,33.3-44.3c7.4-20.2,15-41.1,28.8-41.1
				c13.5,0,21.9,55.3,28.7,99.7C889.6,327.9,897,376,914.6,376s24.9-45.7,33.4-98.6c6.8-42.1,15.2-94.6,28.7-94.6
				c14.2,0,21.4,11.1,29.1,22.9c8,12.3,16.2,25,33.1,25s25.1-12.9,33.1-25.5c7.6-11.9,14.8-23.2,29-23.2c16.7,0,25-11,33-21.7
				c7.6-10.2,14.8-19.8,29.2-19.8c16.8,0,25.1-12.3,33.1-24.2c7.6-11.4,14.8-22.1,29.1-22.1c13.5,0,21.9,50.5,28.7,91
				c8.5,51,15.9,95,33.4,95c17.3,0,25.1-26.6,33.4-54.8c7.4-25.2,15-51.4,28.8-51.4c13.9,0,21.5,20.5,28.8,40.4
				c7.9,21.4,16.1,43.5,33.3,43.5c16.5,0,24.7-7.4,32.7-14.6c7.6-6.9,14.9-13.4,29.5-13.4s21.8,6.5,29.5,13.4
				c7.6,6.8,15.4,13.8,30.2,14.5C1535,257.9,1536.1,256.8,1536.1,255.4L1536.1,255.4z"/>
		</g>
		<g>
			<text transform="matrix(1 0 0 1 774.801 435.5557)" class="st2 st6 st35">JAN</text>
			<text transform="matrix(1 0 0 1 834.343 435.5557)" class="st2 st6 st35">FEB</text>
			<text transform="matrix(1 0 0 1 888.9221 435.5557)" class="st2 st6 st35">MAR</text>
			<text transform="matrix(1 0 0 1 958.9445 435.5557)" class="st2 st6 st35">APR</text>
			<text transform="matrix(1 0 0 1 1027.8596 435.5557)" class="st2 st6 st35">MAY</text>
			<text transform="matrix(1 0 0 1 1090.1614 435.5557)" class="st2 st6 st35">JUN</text>
			<text transform="matrix(1 0 0 1 1153.5686 435.5557)" class="st2 st6 st35">JUL</text>
			<text transform="matrix(1 0 0 1 1207.594 435.5557)" class="st2 st6 st35">AUG</text>
			<text transform="matrix(1 0 0 1 1274.8606 435.5557)" class="st2 st6 st35">SEP</text>
			<text transform="matrix(1 0 0 1 1336.3323 435.5557)" class="st2 st6 st35">OCT</text>
			<text transform="matrix(1 0 0 1 1392.5676 435.5557)" class="st2 st6 st35">NOV</text>
			<text transform="matrix(1 0 0 1 1461.759 435.5557)" class="st2 st6 st35">DEC</text>
		</g>
		<text transform="matrix(1 0 0 1 703.05 405.8819)" class="st2 st6 st35">0</text>
		<text transform="matrix(1 0 0 1 695.175 339.7365)" class="st2 st6 st35">20</text>
		<text transform="matrix(1 0 0 1 695.175 275.2022)" class="st2 st6 st35">40</text>
		<text transform="matrix(1 0 0 1 695.175 214.1114)" class="st2 st6 st35">60</text>
		<text transform="matrix(1 0 0 1 695.175 148.8858)" class="st2 st6 st35">80</text>
		<text transform="matrix(1 0 0 1 687.3205 84.3516)" class="st2 st6 st35">100</text>
	</g>
	<g>
		<g>
			
				<linearGradient id="SVGID_29_" gradientUnits="userSpaceOnUse" x1="1760.9153" y1="434.36" x2="1807.5635" y2="434.36" gradientTransform="matrix(1 0 0 -1 0 525.0599)">
				<stop  offset="0" style="stop-color:#0875F9"/>
				<stop  offset="1" style="stop-color:#27B7FF"/>
			</linearGradient>
			<path class="st36" d="M1807.6,77c-11.9-11.9-28.4-19.3-46.6-19.3v66L1807.6,77z"/>
			<path class="st37" d="M1760.9,123.7L1760.9,123.7L1760.9,123.7z"/>
			<path class="st37" d="M1760.9,123.7L1760.9,123.7L1760.9,123.7z"/>
			
				<linearGradient id="SVGID_30_" gradientUnits="userSpaceOnUse" x1="1760.9" y1="388.36" x2="1849.9" y2="388.36" gradientTransform="matrix(1 0 0 -1 0 525.0599)">
				<stop  offset="0" style="stop-color:#069EFC"/>
				<stop  offset="1" style="stop-color:#14F4C9"/>
			</linearGradient>
			<path class="st38" d="M1823.8,60.8l-62.9,62.9l0,0v88.9c24.6,0,46.8-10,62.9-26.1s26.1-38.3,26.1-62.9S1839.9,76.9,1823.8,60.8z"
				/>
			
				<linearGradient id="SVGID_31_" gradientUnits="userSpaceOnUse" x1="1671.9" y1="445.86" x2="1760.8" y2="445.86" gradientTransform="matrix(1 0 0 -1 0 525.0599)">
				<stop  offset="0" style="stop-color:#069EFC"/>
				<stop  offset="1" style="stop-color:#14F4C9"/>
			</linearGradient>
			<path class="st39" d="M1698,60.8c-16.1,16.1-26.1,38.3-26.1,62.9h88.9l0,0v-89C1736.4,34.7,1714.1,44.7,1698,60.8z"/>
			
				<linearGradient id="SVGID_32_" gradientUnits="userSpaceOnUse" x1="1657.3" y1="349.51" x2="1761.0001" y2="349.51" gradientTransform="matrix(1 0 0 -1 0 525.0599)">
				<stop  offset="7.023620e-02" style="stop-color:#0B5CB5"/>
				<stop  offset="1" style="stop-color:#0A467C"/>
			</linearGradient>
			<path class="st40" d="M1760.9,123.7h-103.6c0,28.6,11.6,54.5,30.4,73.3s44.7,30.4,73.3,30.4V123.7H1760.9z"/>
		</g>
		
			<radialGradient id="SVGID_33_" cx="1765.3" cy="387.86" r="41.4" gradientTransform="matrix(1 0 0 -1 0 525.0599)" gradientUnits="userSpaceOnUse">
			<stop  offset="0" style="stop-color:#000000"/>
			<stop  offset="1" style="stop-color:#FFFFFF"/>
		</radialGradient>
		<circle class="st41" cx="1765.3" cy="137.2" r="41.4"/>
		
			<linearGradient id="SVGID_34_" gradientUnits="userSpaceOnUse" x1="1716.2" y1="395.86" x2="1799.0844" y2="395.86" gradientTransform="matrix(1 0 0 -1 0 525.0599)">
			<stop  offset="7.023620e-02" style="stop-color:#0B5CB5"/>
			<stop  offset="1" style="stop-color:#0A467C"/>
		</linearGradient>
		<circle class="st42" cx="1757.6" cy="129.2" r="41.4"/>
		<circle class="st19" cx="1757.6" cy="129.2" r="27.8"/>
		<g>
			
				<linearGradient id="SVGID_35_" gradientUnits="userSpaceOnUse" x1="1740.9" y1="395.86" x2="1774.2999" y2="395.86" gradientTransform="matrix(1 0 0 -1 0 525.0599)">
				<stop  offset="7.023620e-02" style="stop-color:#0B5CB5"/>
				<stop  offset="1" style="stop-color:#0A467C"/>
			</linearGradient>
			<path class="st43" d="M1757.6,112.5c-9.2,0-16.7,7.5-16.7,16.7s7.5,16.7,16.7,16.7s16.7-7.5,16.7-16.7S1766.8,112.5,1757.6,112.5
				z M1757.6,141.8c-7,0-12.6-5.6-12.6-12.6s5.6-12.6,12.6-12.6s12.6,5.6,12.6,12.6C1770.2,136.1,1764.6,141.8,1757.6,141.8z"/>
			
				<linearGradient id="SVGID_36_" gradientUnits="userSpaceOnUse" x1="1758.1433" y1="400.16" x2="1765.9241" y2="400.16" gradientTransform="matrix(1 0 0 -1 0 525.0599)">
				<stop  offset="7.023620e-02" style="stop-color:#0B5CB5"/>
				<stop  offset="1" style="stop-color:#0A467C"/>
			</linearGradient>
			<path class="st44" d="M1765.9,128.9c-0.1-4.3-3.5-7.7-7.8-8v8H1765.9z"/>
		</g>
		<polyline class="st45" points="1830.7,157.5 1849.1,175.9 1886.6,175.9 		"/>
		<circle class="st19" cx="1831.5" cy="158" r="3.6"/>
		<circle class="st19" cx="1726.8" cy="204.8" r="3.6"/>
		<circle class="st19" cx="1783.2" cy="69.4" r="3.6"/>
		<circle class="st19" cx="1685.3" cy="105.6" r="3.6"/>
		<polyline class="st45" points="1783.2,69.4 1817.4,35.2 1856.9,35.2 		"/>
		<polyline class="st45" points="1685.3,105.6 1655.3,75.6 1627.5,75.6 		"/>
		<polyline class="st45" points="1726.8,204.8 1704.7,226.9 1632.3,226.9 		"/>
		<text transform="matrix(1 0 0 1 1862.1609 37.696)" class="st19 st46 st47">15%</text>
		<text transform="matrix(1 0 0 1 1863.5925 192.9966)" class="st19 st46 st47">50%</text>
		<text transform="matrix(1 0 0 1 1633.1472 218.7603)" class="st19 st46 st47">45%</text>
		<text transform="matrix(1 0 0 1 1628.7634 68.738)" class="st19 st46 st47">30%</text>
		<text transform="matrix(1 0 0 1 1769.1082 84.5816)" class="st19 st46 st48">DATA 04</text>
		<text transform="matrix(1 0 0 1 1705.7703 84.6304)" class="st19 st46 st49">DATA 01</text>
		<text transform="matrix(1 0 0 1 1691.6248 178.1921)" class="st19 st46 st50">DATA 02</text>
		<text transform="matrix(1 0 0 1 1804.8201 140.2027)" class="st19 st46 st51">DATA 03</text>
	</g>
</g>
</svg>
