<?xml version="1.0" encoding="utf-8"?>
<!-- Generator: Adobe Illustrator 21.0.0, SVG Export Plug-In . SVG Version: 6.00 Build 0)  -->
<svg version="1.1" id="Capa_1" xmlns="http://www.w3.org/2000/svg" xmlns:xlink="http://www.w3.org/1999/xlink" x="0px" y="0px"
	 viewBox="0 0 2 2" style="enable-background:new 0 0 2 2;" xml:space="preserve">
<style type="text/css">
	.st0{fill:#00EDFF;}
</style>
<g>
	<g>
		<path class="st0" d="M1.7,1.8L1.7,1.8l0-1h0c0,0,0.1,0,0.1-0.1V0.7c0,0,0-0.1-0.1-0.1H1.5V0.5h0c0,0,0,0,0,0s0,0,0,0l0-0.1h0
			c0,0,0,0,0,0c0,0,0,0,0,0l0-0.1h0c0,0,0,0,0,0s0,0,0,0L1.5,0.1c0,0,0,0,0,0h0V0c0,0,0,0,0,0c0,0,0,0,0,0v0.1h0c0,0,0,0,0,0
			L1.2,0.2c0,0,0,0,0,0s0,0,0,0h0l0,0.1c0,0,0,0,0,0c0,0,0,0,0,0h0l0,0.1c0,0,0,0,0,0s0,0,0,0h0v0.1H1.1V0.5h0c0,0,0,0,0,0
			c0,0,0,0,0,0l0-0.1h0c0,0,0,0,0,0c0,0,0,0,0,0l0-0.1h0c0,0,0,0,0,0c0,0,0,0,0,0L1.1,0.1c0,0,0,0,0,0h0V0c0,0,0,0,0,0c0,0,0,0,0,0
			v0.1h0c0,0,0,0,0,0L0.8,0.2c0,0,0,0,0,0s0,0,0,0h0l0,0.1c0,0,0,0,0,0c0,0,0,0,0,0h0l0,0.1c0,0,0,0,0,0s0,0,0,0h0v0.1H0.7V0.5h0
			c0,0,0,0,0,0s0,0,0,0l0-0.1h0c0,0,0,0,0,0c0,0,0,0,0,0l0-0.1h0c0,0,0,0,0,0s0,0,0,0L0.7,0.1c0,0,0,0,0,0h0V0c0,0,0,0,0,0s0,0,0,0
			v0.1h0c0,0,0,0,0,0L0.5,0.2c0,0,0,0,0,0c0,0,0,0,0,0h0l0,0.1c0,0,0,0,0,0c0,0,0,0,0,0h0l0,0.1c0,0,0,0,0,0c0,0,0,0,0,0h0v0.1H0.3
			c0,0-0.1,0-0.1,0.1v0.1c0,0,0,0.1,0.1,0.1h0v1h0c0,0-0.1,0-0.1,0.1v0.1c0,0,0,0.1,0.1,0.1h1.4c0,0,0.1,0,0.1-0.1L1.7,1.8
			C1.8,1.8,1.8,1.8,1.7,1.8z M1.3,0.2L1.3,0.2l0.1,0.1L1.3,0.2L1.3,0.2z M1.3,0.3L1.3,0.3l0.1,0.1L1.3,0.3L1.3,0.3z M1.3,0.4
			L1.3,0.4l0.1,0.1L1.3,0.4L1.3,0.4z M1.4,0.5L1.4,0.5L1.4,0.5L1.4,0.5L1.4,0.5z M1,0.2L1,0.2l0.1,0.1L1,0.2L1,0.2z M1,0.3L1,0.3
			l0.1,0.1L1,0.3L1,0.3z M1,0.4L1,0.4l0.1,0.1L1,0.4L1,0.4z M1,0.5L1,0.5L1,0.5L1,0.5L1,0.5z M0.6,0.2L0.6,0.2l0.1,0.1L0.6,0.2
			L0.6,0.2z M0.6,0.3L0.6,0.3l0.1,0.1L0.6,0.3L0.6,0.3z M0.6,0.4L0.6,0.4l0.1,0.1L0.6,0.4L0.6,0.4z M0.7,0.5L0.7,0.5L0.7,0.5
			L0.7,0.5L0.7,0.5z M1.7,1.9H0.3c0,0,0,0,0,0V1.8c0,0,0,0,0,0h0.1c0,0,0,0,0,0c0,0,0,0,0,0h0v-1h0.2v0c0,0,0,0,0,0s0,0,0,0v0H1v0
			c0,0,0,0,0,0c0,0,0,0,0,0v0h0.3v0c0,0,0,0,0,0c0,0,0,0,0,0v0h0.1c0,0,0,0,0,0c0,0,0,0,0,0H0.3c0,0,0,0,0,0V0.7c0,0,0,0,0,0h1.4
			c0,0,0,0,0,0v0.1c0,0,0,0,0,0H1.6c0,0,0,0,0,0c0,0,0,0,0,0h0v1H0.5c0,0,0,0,0,0c0,0,0,0,0,0h1.2c0,0,0,0,0,0L1.7,1.9L1.7,1.9
			C1.7,1.9,1.7,1.9,1.7,1.9z"/>
	</g>
</g>
<g>
	<g>
		<path class="st0" d="M1.3,1.5L1,1c0,0,0,0,0,0s0,0,0,0L0.7,1.5c0,0,0,0,0,0.1c0,0,0,0,0,0L1.3,1.5C1.3,1.6,1.3,1.6,1.3,1.5
			C1.4,1.5,1.4,1.5,1.3,1.5z M0.7,1.5L1,1l0.3,0.5H0.7z"/>
	</g>
</g>
<g>
	<g>
		<path class="st0" d="M1.1,1.3C1.1,1.3,1,1.3,1.1,1.3L1.1,1.3L1.1,1.3C1,1.2,1,1.2,1,1.2c0,0,0,0,0,0l0,0.1c0,0,0,0,0,0
			c0,0,0,0,0,0L1.1,1.3L1,1.4c0,0,0,0,0,0c0,0,0,0,0,0c0,0,0,0,0,0L1.1,1.3C1.1,1.3,1.1,1.3,1.1,1.3z"/>
	</g>
</g>
</svg>
